<?xml version="1.0" standalone="no"?>
<!DOCTYPE svg PUBLIC "-//W3C//DTD SVG 20010904//EN"
 "http://www.w3.org/TR/2001/REC-SVG-20010904/DTD/svg10.dtd">
<svg version="1.0" xmlns="http://www.w3.org/2000/svg"
 width="2000.000000pt" height="2000.000000pt" viewBox="0 0 2000.000000 2000.000000"
 preserveAspectRatio="xMidYMid meet">
<metadata>
Created by potrace 1.11, written by Peter Selinger 2001-2013
</metadata>
<g transform="translate(0.000000,2000.000000) scale(0.100000,-0.100000)"
fill="#000000" stroke="none">
<path d="M0 10000 l0 -10000 10000 0 10000 0 0 10000 0 10000 -10000 0 -10000
0 0 -10000z m9186 1756 l34 -34 0 -732 c0 -452 4 -730 9 -728 6 2 238 246 518
544 279 297 526 556 547 575 l39 34 181 3 c203 4 255 -1 288 -28 19 -15 21
-22 13 -43 -8 -19 -1029 -1111 -1532 -1638 l-64 -66 3 -133 3 -132 662 698
c363 385 680 717 702 739 l42 40 208 3 c169 3 216 0 245 -12 40 -17 53 -38 40
-65 -5 -10 -267 -290 -582 -621 l-573 -603 54 -56 c66 -69 1053 -1117 1120
-1188 96 -106 63 -123 -231 -123 -201 0 -210 1 -240 23 -18 12 -235 238 -483
502 -248 264 -463 493 -478 508 l-28 28 -226 -236 -227 -236 0 -237 c0 -267
-6 -304 -53 -332 -28 -17 -51 -20 -169 -20 l-138 0 -32 29 -33 29 -3 1714 c-2
1194 0 1724 8 1750 20 69 43 78 202 78 l140 0 34 -34z"/>
</g>
</svg>
